<?xml version="1.0" encoding="UTF-8" standalone="no"?>
<!-- Created with Inkscape (http://www.inkscape.org/) -->

<svg
   version="1.1"
   id="svg2"
   width="487.94666"
   height="487.94666"
   viewBox="0 0 487.94666 487.94666"
   sodipodi:docname="RIBE_ICON_black.eps"
   xmlns:inkscape="http://www.inkscape.org/namespaces/inkscape"
   xmlns:sodipodi="http://sodipodi.sourceforge.net/DTD/sodipodi-0.dtd"
   xmlns="http://www.w3.org/2000/svg"
   xmlns:svg="http://www.w3.org/2000/svg">
  <defs
     id="defs6" />
  <sodipodi:namedview
     id="namedview4"
     pagecolor="#ffffff"
     bordercolor="#000000"
     borderopacity="0.25"
     inkscape:showpageshadow="2"
     inkscape:pageopacity="0.0"
     inkscape:pagecheckerboard="0"
     inkscape:deskcolor="#d1d1d1" />
  <g
     id="g8"
     inkscape:groupmode="layer"
     inkscape:label="ink_ext_XXXXXX"
     transform="matrix(1.3333333,0,0,-1.3333333,0,487.94667)">
    <g
       id="g10"
       transform="scale(0.1)">
      <path
         d="m 1160.7,2460.02 c -43.75,-44.52 -82.51,-92.81 -115.96,-144.14 L 1949.92,740.41 c -329.49,-39.648 -657.75,73.141 -892.97,308.35 -57.489,57.5 -108.505,121.45 -151.891,190.68 V 978.602 C 918.035,964.34 931.332,950.398 944.961,936.77 1275.96,605.809 1766.29,490.191 2208.97,636.57 1858.41,1243.74 1509.86,1852.05 1160.7,2460.02 Z m 669.09,1199.56 c 1010.57,0 1829.79,-819.22 1829.79,-1829.79 0,-649.83 -338.76,-1220.481 -849.3,-1545.118 L 1440.7,2655.37 c -52.33,-23.56 -102.52,-52.06 -149.89,-85.19 L 2660.67,199.109 C 2411.33,71.8203 2128.94,0 1829.79,0 1424.42,0 1049.88,131.93 746.617,355.051 v 840.509 500.25 4.12 c -3.801,36.83 -5.75,74.2 -5.75,112.01 0,298.07 120.797,567.9 316.083,763.19 195.3,195.31 465.14,316.11 763.19,316.11 298.07,0 567.89,-120.8 763.18,-316.11 195.31,-195.29 316.11,-465.12 316.11,-763.19 0,-237.22 -76.54,-456.56 -206.24,-634.68 -300.41,520.39 -602.77,1039.39 -905.06,1558.71 -62.79,-2.15 -124.64,-10.6 -184.71,-25.01 351.21,-603.94 702.39,-1207.6 1051.71,-1812.62 13.67,12.531 27.11,25.332 40.21,38.43 223.96,223.99 362.51,533.42 362.51,875.17 0,341.78 -138.55,651.21 -362.51,875.2 -223.99,223.97 -533.43,362.52 -875.2,362.52 -341.76,0 -651.19,-138.55 -875.179,-362.52 -223.969,-223.99 -362.535,-533.42 -362.535,-875.2 0,-40.45 1.953,-80.45 5.754,-119.93 V 485.852 C 226.527,820.102 0,1298.48 0,1829.79 0,2840.36 819.219,3659.58 1829.79,3659.58 v 0"
         style="fill:#000000;fill-opacity:1;fill-rule:evenodd;stroke:none"
         id="path12" />
      <path
         d="m 2506.7,979.121 c 3.33,2.738 6.64,5.508 9.93,8.309 z m -38.78,-30.531 c 5.83,4.371 11.62,8.82 17.37,13.308 -5.75,-4.488 -11.54,-8.918 -17.37,-13.308 z m -28.82,-20.942 4.47,3.153 -4.47,-3.153 z M 2014.27,973.781 1160.7,2460.02 c -43.75,-44.52 -82.51,-92.81 -115.96,-144.14 L 1814.98,974.148 1949.92,740.41 c -42.57,-5.121 -85.86,-7.738 -129.78,-7.738 -298.05,0 -567.89,120.797 -763.19,316.088 -57.489,57.5 -108.505,121.45 -151.891,190.68 V 978.602 c 12.976,-14.262 26.273,-28.204 39.902,-41.832 223.989,-223.969 533.419,-362.54 875.179,-362.54 135.82,0 266.55,21.911 388.83,62.34 l -73.86,127.91 -7.31,12.668 -113.53,196.633 z m 796.01,-689.109 -1.28,2.289 -290.44,503.07 h 0.02 l -72.11,124.879 -7.37,12.738 -216.15,374.392 -782.25,1353.33 c -52.33,-23.56 -102.52,-52.06 -149.89,-85.19 l 832.59,-1440.56 167.07,-289.358 8.04,-13.953 361.17,-625.559 0.99,-1.641 c 51.33,26.2 101.24,54.801 149.61,85.563 z M 1820.14,3049.66 c 341.77,0 651.21,-138.55 875.2,-362.52 223.96,-223.99 362.51,-533.42 362.51,-875.2 0,-341.75 -138.55,-651.18 -362.51,-875.17 -13.1,-13.098 -26.54,-25.899 -40.21,-38.43 l -76.4,132.32 -4.98,8.65 -251.25,435.15 v 0 l -719.08,1236.5 c 60.07,14.41 121.92,22.86 184.71,25.01 l 633.93,-1089.08 v 0 l 271.13,-469.63 c 129.7,178.12 206.24,397.46 206.24,634.68 0,298.07 -120.8,567.9 -316.11,763.19 -195.29,195.31 -465.11,316.11 -763.18,316.11 -298.05,0 -567.89,-120.8 -763.19,-316.11 -195.286,-195.29 -316.083,-465.12 -316.083,-763.19 0,-37.81 1.949,-75.18 5.75,-112.01 v -4.12 -500.25 -840.509 C 691.348,395.699 638.465,439.391 588.18,485.852 V 1692.01 c -3.801,39.48 -5.754,79.48 -5.754,119.93 0,341.78 138.566,651.21 362.535,875.2 223.989,223.97 533.419,362.52 875.179,362.52 v 0"
         style="fill:#ffffff;fill-opacity:1;fill-rule:evenodd;stroke:none"
         id="path14" />
    </g>
  </g>
</svg>
