<?xml version="1.0" encoding="UTF-8"?><svg id="Layer_1" fill="white" xmlns="http://www.w3.org/2000/svg" viewBox="0 0 407.84 109.44"><path d="M159,98.94c-7.25,0-12.93-6.16-12.93-14.02,0-6.64,6.04-12.45,12.93-12.45s12.91,5.7,12.91,12.45c0,7.86-5.67,14.02-12.91,14.02M159,61.96c-13.21,0-23.96,10.27-23.96,22.91,0,14.24,10.08,24.56,23.96,24.56s23.92-10.32,23.92-24.56c0-12.64-10.72-22.91-23.92-22.91M69.64,98.94c-7.26,0-12.94-6.16-12.94-14.02,0-6.64,6.06-12.45,12.94-12.45s12.93,5.82,12.93,12.45c0,7.86-5.67,14.02-12.93,14.02M69.64,61.96c-13.2,0-23.94,10.27-23.94,22.91,0,14.24,10.07,24.56,23.94,24.56s23.91-10.1,23.91-24.56c0-12.64-10.72-22.91-23.91-22.91M396.8,108.81h11.03v-46.45h-11.03v46.45ZM355.21,72.99h18.69s-18.72,24.48-18.91,24.73v11.09h33.37v-10.78h-19.11s18.9-24.48,19.11-24.72v-10.95h-33.15v10.62ZM313.39,72.99h18.71s-18.72,24.48-18.91,24.73v11.09h33.36v-10.78h-19.13s18.93-24.48,19.13-24.72v-10.95h-33.16v10.62ZM293.52,94.97c0,1.66-1.39,3.06-3.05,3.06h-9.7c-1.68,0-3.05-1.37-3.05-3.06v-32.6h-11.29v33.86c0,6.94,5.59,12.59,12.48,12.59h13.39c6.9,0,12.51-5.64,12.51-12.59v-33.86h-11.3v32.6ZM95.88,72.99h11.99v35.82h11.29v-35.82h11.99v-10.62h-35.27v10.62ZM19.96,76.57s-9.04-13.79-9.31-14.2H0v46.44h10.85v-27.55s8.38,13.17,9.11,14.3c.71-1.13,9.12-14.3,9.12-14.3v27.55h10.84v-46.44h-10.63c-.26.41-9.33,14.2-9.33,14.2M259.22,80.83h-24.02v10.25h12.14c-2.04,4.47-6.52,7.58-11.72,7.58-7.11,0-12.9-5.81-12.9-12.97s5.78-12.97,12.9-12.97c3.62,0,6.83,1.48,9.2,3.88l7.59-7.63c-4.29-4.37-10.22-7.02-16.78-7.02-13.05,0-23.64,10.62-23.64,23.75s10.59,23.73,23.64,23.73,23.6-10.59,23.66-23.65h-.05v-4.94Z"/><path d="M304.93,7.8c9.7,1.04,27.04,1.91,34.02-1.34-5.28.86-16.06.71-26.31.27-2.98-.07-5.94-.16-8.8-.24-2.33-.08-4.59-.14-6.73-.2,2.05.66,6.37,1.41,7.83,1.51M293.48,9.25c4.55,1.61,20.88,4,24.52,2.31-6.66-.51-10.99-.82-17.52-2.31-2.82-.59-6.22-.21-7,0M242.82,15.75c.74.64,1.51,1.29,2.57,2.08,1.7,1.28,4.59,2.73,6.99,1.92-.84-.92-2.21-2.18-3.63-3.38-.01,0-.02-.01-.03-.02-1.98-1.75-4.73-.85-5.9-.6M245.77,22.09c-.57-.61-1.87-1.9-3.25-3.17-1.66-1.43-4.56-1-5.77-.82,2.23,2.21,5.45,4.71,9.02,3.99M248.9,13.31l.37.19c.82.61,1.72,1.23,2.81,1.91,1.97,1.22,4.68,2.68,7.63,1.72-.93-.89-2.71-2.21-4.18-3.3-2.26-1.5-5.42-.85-6.62-.53M255.51,11.11h-.01c1.16.74,2.46,1.53,3.63,2.27,1.91,1.2,4.96,2.34,7.04,1.29-1.04-.86-2.64-2.02-4.29-3.11-2.28-1.54-5.17-.77-6.37-.44M262.08,9.31c.89.58,1.62,1.04,2.92,1.71,1.91.97,5.71,2.24,7.83,1.43-.59-.38-2.6-1.64-5.13-2.92-1.64-.85-4.43-.53-5.62-.22M268.69,7.96c1.78.91,3.42,1.75,5.48,2.42,1.45.48,4.9,1.24,6.19.61-.79-.4-3.15-1.63-5.97-2.83-.08-.02-.16-.06-.26-.09-1.77-.76-4.1-.31-5.44-.11M276.49,6.88h0c1.7.73,3.21,1.41,5.11,1.91,1.22.31,4.1.75,5.13.16-.68-.28-2.76-1.2-5.21-2.05-1.63-.4-3.73-.14-5.02-.01M284.88,6.32c1.83.6,3.82.99,5.78,1.19,1.28.14,4.03.34,5.03-.27-.47-.13-1.59-.45-3.06-.76-2.03-.42-5.46-.27-7.75-.16M290.24,12.77c1.22.37,6.39,1.66,9.62.55-4.77-1.25-7.73-2.12-10.16-2.87-.76.33-2.77.8-4.5.57.87.36,3.83,1.38,5.04,1.75M282.68,14.97c2.28,1.07,6.01,1.78,8.62,1.07-2.87-1.33-5.74-2.43-8.34-3.52-.59.28-2.6.75-4.8.39.86.4,2.54,1.13,4.52,2.06M275.08,17.03c2.12,1.08,5.33,1.98,7.89,1.1-2.68-1.64-5.39-2.92-7.89-4.1-.58.27-3,.79-4.71.5.96.5,2.71,1.49,4.7,2.5M268.54,19.93c2.18,1.35,5.54,2.33,7.63,1.47-2.02-1.84-5.41-3.63-7.71-4.9-.66.24-3.01.83-4.82.37.98.62,2.86,1.79,4.89,3.06M262.08,23.39c2.18,1.49,5.18,2.05,7.37,1.28-1.99-1.98-5.61-4.26-7.92-5.67-.69.22-2.98.88-4.81.33.98.69,3.33,2.69,5.36,4.07M250.26,22.1c4.22,4,7.18,7.16,12.55,6.06-2.23-2.17-5.64-4.72-8.07-6.42-.65.17-2.67.75-4.48.36M248.57,29.5c.86.77,1.78,1.3,2.8,1.63,1.09.33,2.33.44,3.83.28.2-.02.41-.04.61-.08-1.72-2.22-5.77-5.44-7.87-7.14-.88.21-2.91.36-4.65-.28,0,0,0,0,0,0,.89.81,3.44,3.94,5.27,5.58M237.73,24.57c3.32,6.06,5,9.87,10.22,9.16-1.25-2.28-5.56-7.25-6.81-8.66-.9.02-2.41-.16-3.41-.5M235.25,25.68c-.52-.06-1.77-.25-2.86-.66,2.11,5.79,2.9,9.65,7.34,9.74-.7-2.32-3.87-8.09-4.49-9.08M229.87,26.09c-.6.2-1.25.35-1.97.46.04.2.18.89.18.89.88,4.49,1.25,6.23,4.23,6.91-.13-.45-2.38-8.02-2.45-8.26M224.96,26.72c-.2,0-1.94-.08-1.99-.08.26,4.19.43,5.86,3.19,7.1-.09-.49-1.17-6.81-1.21-7.02M219.99,26.62c-.84.06-1.53.21-2.13.47v.23c0,2.62.46,4.04,2.55,5.15-.04-.48-.23-2.9-.23-2.9,0,0-.18-2.68-.2-2.95M214.67,29.13h0s-1.52,1.04-1.74,1.19c.48.84,1.32,1.58,2.52,2.26-.02-.48-.13-3.44-.13-3.44,0,0,0-.24,0-.45-.24.16-.64.44-.64.44M211.09,48.66c.49.48.8.71,1.75,1.61.87.91.94,2.04.64,3.13,1.84-1.23,1.77-2.87,1.47-3.48-.29-.6-1.88-2.11-2.48-2.59-.6-.47-1.02-.39-1.35-.07-.32.31-.55.87-.02,1.4M206.53,34.52c1.27,1.99.71,7.12-3.45,8.49,7.58.4,9.87-3.09,9.83-5.01-.06-2.67-3.32-4.38-6.38-3.47M208.66,50.57c.87.91.93,2.04.63,3.12,1.85-1.23,1.78-2.86,1.48-3.48-.29-.6-1.87-2.11-2.48-2.59-.6-.48-1.02-.39-1.35-.07-.32.3-.55.86-.03,1.39.48.48.8.72,1.75,1.62M202.85,47.67c-.31.32-.52.88.03,1.4.5.46.82.69,1.81,1.55.89.89,1.01,2.01.74,3.1,1.8-1.29,1.68-2.92,1.36-3.53-.31-.59-1.95-2.04-2.57-2.5-.62-.45-1.03-.35-1.35-.03M197.79,49.08c.49.48.8.71,1.75,1.61.86.91.93,2.04.64,3.13,1.84-1.23,1.77-2.87,1.47-3.48-.29-.6-1.88-2.11-2.48-2.59-.61-.47-1.02-.39-1.36-.07-.31.31-.54.86-.02,1.4M195.36,51c.86.91.93,2.05.62,3.12,1.85-1.23,1.78-2.86,1.48-3.48-.29-.6-1.87-2.11-2.48-2.59-.6-.48-1.01-.39-1.35-.08-.32.31-.55.86-.02,1.4.48.48.8.72,1.75,1.62M189.55,48.1c-.31.32-.53.88.03,1.4.5.47.82.69,1.8,1.55.89.88,1.01,2.01.74,3.1,1.8-1.29,1.67-2.92,1.36-3.53-.31-.59-1.95-2.04-2.57-2.5-.62-.46-1.03-.36-1.35-.03M184.31,46.69c-.28.51-1.24,2.98-1.21,4.84.05.24.2.38.32.34.11-.03.17-.16.3-.55.79-2.54,2.6-5.68,8.13-8.22.05.09.09.33.12.55,2.88-1.11,5.28-1,7.41-1.11,6.7-.33,7.23-7.63,3.57-9.07-.76-.29-4.94-1.89-10.18,2.67.57.09,2.25.81,2.25.81-1.53.43-7.52,3.79-10.71,9.73M133.58,6.67c-3.47,1.15-6.64,3.01-7.89,3.41,3.53,1.34,8.38-1.13,11.13-2.17-1.37.01-2.91-.57-3.25-1.24M130.92,5.12c-4.89-.06-9.73,1.67-10.7,2,3.28,1.69,9.92-1.17,10.7-2M175.77,26.72c-1.96,1.13-4.28,2.6-5.23,3.16,2.5.85,6.75-.7,9.17-1.98-1.13-.02-3.01-.54-3.94-1.19M172.86,25.35c-1.29-.12-3.09-.7-4.09-1.53-2.32,1.16-5.02,2.77-6.15,3.36,2.8,1.18,7.39-.53,10.23-1.83M182.77,28.96c-1.81,1.14-3.9,2.66-4.78,3.23,2.4.59,5.92-1.12,8.15-2.43-1.06.05-2.47-.29-3.37-.81M181.28,33.89c-2.08.17-3.55.54-5.19-.31-2.6,1.87-5.5,4.49-7.08,5.39,4.63.72,8.97-2.35,12.27-5.08M184.3,35.35c-2.41,1.85-5.1,4.42-6.57,5.31,4.41.56,8.45-2.47,11.51-5.15-1.98.22-3.36.62-4.94-.15M173.64,32.25c-1.79.06-3.57-.23-4.99-.98-3.08,2.12-6.27,4.4-8.01,5.48,3.71,1.12,9.59-1.91,13-4.5M154.18,31.5c2.52.12,6.98-.96,9.49-2.26-.25.13-2.73-.38-3.11-.95-.54.24-3.82,1.77-6.17,2.65-.16.06-.28.21-.34.35-.04.11-.03.2.13.21M154.79,24.16c2.07,1.28,8.11-.44,11.42-2.27-1.81-.23-3.28-.79-4.46-1.86-2.79,1.53-5.5,3.35-6.96,4.13M159.19,18.04c-1.96-.17-3.57-1-4.58-1.88-3.26,1.86-5.84,3.6-7.53,4.48,3.01,1.54,8.63-.54,12.11-2.6M152.79,14.14c-2.2.03-3.86-.95-4.82-1.78-2.29,1.13-6.47,3.36-8.64,4.43,3.05,1.63,9.35-.4,13.47-2.65M145.48,10.65c-2.2-.02-3.84-1.04-4.78-1.89-2.31,1.07-6.61,3.33-8.82,4.36,3.01,1.7,9.42-.32,13.6-2.46M136.99,5.43c-.61.14-1.09.26-1.31.33,2.31,1.63,5.79.47,7.9-.19-2.88-.2-5.28-.4-6.58-.14M148.57,6.29c-2.4.42-4.47,1.2-5.64,1.54,4.37,2.96,9.2-.03,12.25-.83-2.07-.36-5.24-.95-6.61-.71M157.57,8.61c-3.23.83-6.06,2.03-6.78,2.39.93,1.4,4.04,1.47,6.29.67,1.74-.62,3.83-1.57,6.04-2.56-1.35-.42-4.14-.88-5.55-.5M164.76,11.46c-2.72.98-5.67,2.24-7.51,3.23,1.07,1.37,4.59,1.35,7.05.47,2-.71,4.04-1.52,6.54-2.53-1.52-.72-4.23-1.89-6.08-1.17M171.85,15.14c-2.93,1.08-5.56,2.3-7.31,3.27.97,1.38,4.44,1.53,6.6.57,1.78-.79,3.5-1.6,5.6-2.62h-.08c-.94-.82-3.01-1.81-4.81-1.22M177.28,19.77c-2.26.9-4.81,2.11-5.77,2.65,3.04,1.82,6.98-.06,9.79-1.59h-.05c-.74-.72-2.46-1.49-3.98-1.06M182.38,23.39c-1.79.78-3.41,1.58-4.01,1.93,2.5,1.36,5.38-.3,7.31-1.55-.68-.44-2.14-.89-3.29-.38t0,0M187.02,26.12c-.86.45-1.56.86-1.89,1.11,2,1.18,4.04-.08,5.44-1.04-.91-.29-2.32-.73-3.54-.06M192.29,31.75c-.8.04-2.16-.36-2.84-.8-1.36.96-2.93,2.25-3.59,2.73,1.81.51,4.75-.83,6.42-1.93M184.34,43.14c-1.22,1.14-9.82,9.2-10.27,9.61,1.47.11,4.14-.25,6.25-2.28l.58-.56s1.07-1.04,1.08-1.01c.4-1.75,1.34-4.01,2.35-5.76M175.8,42.47c-2.76,2.48-6.53,5.64-11.2,9.35,1.79.98,6.55.34,10.2-2.98l4.58-4.21s1.88-1.71,2.16-1.96c-2.72.45-4.22.4-5.73-.21M167.06,40.68c-3.59,2.93-8.79,7.09-13.05,9.71,1.85.98,5.15,1.33,10.56-2.36,2.1-1.43,5.06-3.89,8.68-6.94-3.06.72-5.35.17-6.19-.42M158.25,38.55s-7.79,5.28-12.7,8.49c1.09.94,4.01,1.34,6.51.27,1.82-.77,9.66-6.15,12.33-8.32-3.73.7-5.6.04-6.14-.45M144.73,29.8c-.04.14-.02.26.19.26,3.18-.04,8.67-1.6,11.88-3.47-.3.17-3.58-.37-4.11-1.04-.66.35-4.67,2.51-7.56,3.79-.19.08-.32.29-.4.47M134.94,27.33c-.06.18-.04.34.22.35,4.07.07,10.93-1.66,15.43-4.17-.4.22-4.55-.25-5.37-1.39-.86.43-6.04,3.09-9.77,4.63-.25.1-.43.36-.52.59M125.64,23.87c-.08.2-.06.38.24.4,4.61.27,12.73-2.06,17.44-4.53-.45.23-5.09-.4-5.96-1.34-1,.43-6.79,3.3-11.1,4.84-.29.1-.51.38-.62.63M116.31,20.35c-.09.22-.07.4.27.42,5.14.25,13.71-2.03,18.64-4.65-.5.26-4.64-.31-5.7-1.49-3.45,1.69-7.23,3.5-12.5,5.04-.33.09-.57.41-.7.68M107.98,16.76c-.11.17-.1.26.28.28,5.44.26,12.6-1.47,18.95-4.49-.56.27-3.72-.3-4.52-1.29-4.08,1.92-7.95,3.41-13.89,4.92-.37.09-.66.37-.82.58M95.3,13.49c8.11.87,21.44-2.37,25.56-4.01-2.06-.13-3.47-.84-4.01-1.38-6.06,1.9-12.22,3.61-21.27,4.52-.55.05-.81.81-.28.87M81.88,7.88c-5.28.05-10.14-.14-13.81-.69,13.31,5.39,40.93.88,49.97-1.46l-7.16.6c-8.54.78-19.01,1.73-28.99,1.55M219.94,17.68c-.22.02-.45-.04-.65-.21-.43-.37-.52-1.08-.19-1.59,0-.02.03-.03.05-.05l-.96-.08c-1.24,1.72.33,3.2,1.74,1.92M223.15,15.68c-.19.17-.51.48-.67.31-.16-.16.45-.92-.66-1.87.71.22,1.3.44,1.33,1.56M221.62,17.2c-.12-.2-.67-.21-.77-.08-1.83,2.49-2.87,2.36-3.22,2.29,1.39-1.83-1.92-.77-2.5-.97.79-.28,1.46-.66,1.73-1.09.84-1.34.58-2.14-2.22-2.44,1.78-.37,5.4.06,6.03.21.71.17,1.01.33,1.1,1.04.06.44,0,.74-.15,1.04M224.07,15.72c-.05-.87-.58-2.2-1.06-2.54.7.04,1.3.65,1.69,1.21-.2-.76-.5-1.37-.8-1.66-.02-.02-.04-.04-.06-.06-.04-.03-.08-.06-.12-.08h0c-.09-.09-.2-.15-.31-.21-4.49-1.44-9.08-.5-13.22-1.74.15.37.39,1.03.56,1.26-8.25-.39-12.77,2.29-19.92,3.15,2.38,2.46,11.08,0,13.27,1.96-4.03-.12-7.49,1.89-11.85.93.51.86,1.06,1.59,1.86,2.29,1.08.41,3.37.49,5.28.21-1.23.85-4.17,1.14-4.04,1.22.38.33,1.49,1.03,2.64,1.26-8.41,1.28-8.55-12.87-23.76-18.12C164.81,1.58,153.53.04,140.1,0c-5.14-.01-12.95.23-20.76.73-9.56.62-44.13,5.08-62.24.3,15.41,8.46,48.43,3.22,62.67,2.37,43.74-2.61,56.8,8.35,61.34,13.57,4.34,5,9.73,8.88,16.32,8.77-1.35.83-2.82,1.45-4.37,1.78,4.11,1.08,7.78-1.37,7.82-1.33-2.84,3.23-6.02,3.35-9.39,2.62.26,1.31,3.98,2.05,7.83,1.17,4.97-1.13,8.36-5.59,11.72-4.78-1.96.5-5.08,2.98-7.34,5.41,3.03-2.25,7.06-3.32,4.15-.46,3.18-.79,5.12-2.88,8.11-4.68,3.91-2.53,8.94-.06,13.3-1.6.71-.27,1.56-.57,1.73-1.47-2.86.87-5.56.1-8.51,0-.67-.04-1.31,1.24-1.87.26.1-.26.4-.7.8-.53,2.29-1.98,5.32-3.41,8.38-2.4.5-.47,1.23-.37,1.86-.54.92-.03,1.81.33,2.25,1.19.07-.44.13-.87.13-.88.09-.59.03-1.09-.18-1.53-.02-.03-.03-.06-.05-.09-.04-.08-.09-.14-.14-.21-.14-.18-.3-.36-.48-.51-.03-.02-.06-.05-.09-.07-.03-.02-.05-.04-.08-.06-.52-.37-1.34-.77-2.66-1.07-1.01-.21-2.09-.31-3.09-.37-.78.1-1.77.4-2.4,0-.28,0-.6-.04-.8.13M351.58.49c-13.07,2.88-31.04,1.74-48.56.64-18.74-1.18-36.3-1.96-50.01,1.54-7.61,1.94-20.28,7.62-27.3,9.24.35.51.6,1.11.77,1.7,3.85.11,6.59.85,8.11,2.22,4.11-1.03,16.12-5.58,16.13-5.59,7.33-2.27,17.33-6.09,39.71-6.2,16.8-.09,48.53,2.92,61.14-3.55"/></svg>